<?xml version="1.0" encoding="UTF-8" standalone="no"?>
<svg width="20px" height="20px" viewBox="0 0 20 20" version="1.1" xmlns="http://www.w3.org/2000/svg" xmlns:xlink="http://www.w3.org/1999/xlink" xmlns:sketch="http://www.bohemiancoding.com/sketch/ns">
    <!-- Generator: Sketch 3.0.3 (7891) - http://www.bohemiancoding.com/sketch -->
    <title>post-gplus</title>
    <desc>Created with Sketch.</desc>
    <defs></defs>
    <g id="Page-1" stroke="none" stroke-width="1" fill="none" fill-rule="evenodd" sketch:type="MSPage">
        <g id="Icons-Social" sketch:type="MSLayerGroup" transform="translate(-43.000000, -169.000000)" fill="#fff">
            <g id="post-gplus" transform="translate(43.000000, 169.000000)" sketch:type="MSShapeGroup">
                <path d="M9.2,6.9 C9.2,5.9 8.6,3.9 7.1,3.9 C6.5,3.9 5.8,4.3 5.8,5.6 C5.8,6.8 6.4,8.5 7.8,8.5 C7.8,8.5 9.2,8.4 9.2,6.9 L9.2,6.9 Z M8.6,11.8 L8.3,11.8 L8.3,11.8 C8,11.8 7.1,11.9 6.5,12.1 C5.8,12.3 5,12.8 5,13.8 C5,14.9 6,16 8,16 C9.5,16 10.4,15 10.4,14 C10.4,13.3 9.9,12.8 8.6,11.8 L8.6,11.8 Z M18,0 L2,0 C0.9,0 0,0.9 0,2 L0,18 C0,19.1 0.9,20 2,20 L18,20 C19.1,20 20,19.1 20,18 L20,2 C20,0.9 19.1,0 18,0 L18,0 Z M7.1,17.2 C4.3,17.2 3,15.6 3,14.2 C3,13.7 3.1,12.6 4.5,11.8 C5.3,11.3 6.3,11 7.6,10.9 C7.4,10.7 7.3,10.4 7.3,9.9 C7.3,9.7 7.3,9.6 7.4,9.4 L7,9.4 C5,9.4 3.8,7.9 3.8,6.4 C3.8,4.7 5.1,2.8 7.9,2.8 L12.1,2.8 L11.8,3.1 L11.1,3.8 L11,3.9 L10.3,3.9 C10.7,4.3 11.2,5 11.2,6.1 C11.2,7.5 10.5,8.2 9.6,8.8 C9.4,8.9 9.2,9.2 9.2,9.5 C9.2,9.8 9.4,10 9.6,10.1 C9.7,10.2 9.9,10.3 10.1,10.4 C10.9,11 12,11.7 12,13.3 C12,15.1 10.7,17.2 7.1,17.2 L7.1,17.2 Z M17,10 L15,10 L15,12 L14,12 L14,10 L12,10 L12,9 L14,9 L14,7 L15,7 L15,9 L17,9 L17,10 L17,10 Z" id="Shape"></path>
            </g>
        </g>
    </g>
</svg>
