<?xml version="1.0" encoding="iso-8859-1"?>
<!-- Generator: Adobe Illustrator 16.0.0, SVG Export Plug-In . SVG Version: 6.00 Build 0)  -->
<!DOCTYPE svg PUBLIC "-//W3C//DTD SVG 1.1//EN" "http://www.w3.org/Graphics/SVG/1.1/DTD/svg11.dtd">
<svg version="1.1" id="Capa_1" xmlns="http://www.w3.org/2000/svg" xmlns:xlink="http://www.w3.org/1999/xlink" x="0px" y="0px"
	 width="590.473px" height="590.473px" viewBox="0 0 590.473 590.473" style="enable-background:new 0 0 590.473 590.473;"
	 xml:space="preserve">
<g>
	<g>
		<g>
			<g>
				<path d="M338.335,310.876h-22.539l-5.416,16.468h-12.035l22.623-64.24h12.201l22.632,64.24h-12.049L338.335,310.876z
					 M327.019,274.238c0,0-1.451,6.337-2.71,9.948l-5.696,17.183h16.819l-5.704-17.183c-1.179-3.627-2.527-9.948-2.527-9.948
					H327.019z"/>
			</g>
			<g>
				<path d="M373.078,263.117h20.716c6.964,0,10.132,0.537,12.926,1.819c6.432,2.879,10.499,9.047,10.499,17.548
					c0,7.691-4.07,14.826-10.857,17.566v0.182c0,0,0.902,0.897,2.177,3.169l13.21,23.969h-13.023l-12.759-23.973h-11.229v23.966
					h-11.665V263.11h0.007V263.117L373.078,263.117z M395.236,293.243c6.24,0,10.127-3.708,10.127-10.132
					c0-6.149-2.617-9.948-11.756-9.948h-8.871v20.089L395.236,293.243L395.236,293.243z"/>
			</g>
			<g>
				<path d="M441.661,263.117h21.9c19.812,0,32.741,11.76,32.741,32.018c0,20.285-12.926,32.206-32.741,32.206h-21.9V263.117z
					 M462.927,317.305c13.03,0,21.34-7.686,21.34-22.169c0-14.281-8.513-21.979-21.34-21.979h-9.597v44.148H462.927L462.927,317.305
					z"/>
			</g>
			<g>
				<path d="M517.221,310.876c0,0,6.966,6.787,16.011,6.787c4.884,0,9.324-2.524,9.324-7.771c0-11.507-30.314-9.518-30.314-29.23
					c0-10.685,9.225-18.637,21.529-18.637c12.672,0,19.181,6.876,19.181,6.876l-5.071,9.506c0,0-6.168-5.606-14.218-5.606
					c-5.411,0-9.679,3.168-9.679,7.691c0,11.407,30.211,8.595,30.211,29.143c0,10.221-7.774,18.813-21.168,18.813
					c-14.291,0-22.159-8.765-22.159-8.765L517.221,310.876z"/>
			</g>
			<g>
				<path d="M206.664,263.117l-10.589,44.438c-0.81,3.615-1.08,6.776-1.08,6.776h-0.186c-0.095,0-0.186-3.075-1.177-6.776
					l-11.398-44.438h-10.131l-11.577,44.438c-1,3.692-1.084,6.776-1.177,6.776h-0.18c0,0-0.284-3.166-1.082-6.776l-7.582-33.275
					l-5.698,24.256l7.21,28.808h13.481l9.863-37.991c1.085-4.164,1.633-8.413,1.633-8.413h0.171c0,0,0.542,4.25,1.635,8.413
					l9.874,37.991h13.471l16.57-64.24L206.664,263.117L206.664,263.117z"/>
			</g>
			<g>
				<path d="M279.142,263.117l-10.593,44.438c-0.808,3.615-1.08,6.776-1.08,6.776h-0.19c-0.082,0-0.169-3.075-1.164-6.776
					l-11.409-44.438h-10.122l-11.58,44.438c-1.003,3.692-1.083,6.776-1.176,6.776h-0.186c0,0-0.271-3.166-1.082-6.776l-7.628-33.429
					l-5.698,24.258l7.266,28.966h13.475l9.858-37.993c1.084-4.164,1.637-8.412,1.637-8.412h0.18c0,0,0.543,4.248,1.629,8.412
					l9.869,37.993h13.476l16.568-64.233H279.142L279.142,263.117z"/>
			</g>
			<g>
				<path d="M39.997,310.876H17.465l-5.427,16.468H0l22.621-64.227h12.219l22.618,64.227H45.421L39.997,310.876z M28.686,274.238
					c0,0-1.454,6.337-2.714,9.948l-5.701,17.183h16.829l-5.71-17.176c-1.17-3.623-2.533-9.955-2.533-9.955H28.686L28.686,274.238z"
					/>
			</g>
			<g>
				<path d="M121.159,307.546c0.993,3.702,1.079,6.78,1.168,6.78h0.183c0,0,0.278-3.174,1.084-6.78l10.586-44.442h12.036
					l-16.564,64.24h-13.475l-9.858-37.996c-1.082-4.161-1.637-8.411-1.637-8.411h-0.18c0,0-0.536,4.25-1.629,8.411l-9.865,37.993
					H79.527l-16.102-64.224H75.46l10.137,44.438c0.816,3.615,1.086,6.776,1.086,6.776h0.182c0.097,0,0.171-3.075,1.177-6.776
					l11.581-44.438h10.117L121.159,307.546z"/>
			</g>
		</g>
		<g>
			<path style="fill:#2E2D2D;" d="M579.429,284.003c6.15,0,11.044,4.972,11.044,11.228c0,6.298-4.894,11.236-11.044,11.236
				c-6.036,0-10.912-4.937-10.912-11.236C568.517,288.979,573.393,284.003,579.429,284.003z M579.429,305.156
				c5.456,0,9.647-4.309,9.647-9.917c0-5.583-4.196-9.918-9.647-9.918c-5.361,0-9.524,4.347-9.524,9.918
				C569.904,300.854,574.072,305.156,579.429,305.156z M575.842,289.04h4.113c2.101,0,3.605,1.434,3.605,3.604
				c0,1.828-1.106,3.002-2.391,3.317v0.058c0,0,0.113,0.158,0.413,0.687l2.449,4.744h-1.523l-2.631-5.18h-2.676v5.18h-1.343
				L575.842,289.04L575.842,289.04z M579.81,295.08c1.429,0,2.354-0.918,2.354-2.441c0-1.488-0.926-2.371-2.354-2.371h-2.607v4.81
				L579.81,295.08L579.81,295.08z"/>
		</g>
	</g>
</g>
<g>
</g>
<g>
</g>
<g>
</g>
<g>
</g>
<g>
</g>
<g>
</g>
<g>
</g>
<g>
</g>
<g>
</g>
<g>
</g>
<g>
</g>
<g>
</g>
<g>
</g>
<g>
</g>
<g>
</g>
</svg>
