<?xml version="1.0" encoding="utf-8"?>
<!-- Generator: Adobe Illustrator 17.1.0, SVG Export Plug-In . SVG Version: 6.00 Build 0)  -->
<!DOCTYPE svg PUBLIC "-//W3C//DTD SVG 1.1//EN" "http://www.w3.org/Graphics/SVG/1.1/DTD/svg11.dtd">
<svg version="1.1" id="Слой_1" xmlns="http://www.w3.org/2000/svg" xmlns:xlink="http://www.w3.org/1999/xlink" x="0px" y="0px"
	 viewBox="0 0 200 100" enable-background="new 0 0 200 100" xml:space="preserve">
<g>
	<g>
		<path fill="#F6F6F6" d="M27.3,38c4,0,7.2,3.3,7.2,7.2c0,4-3.2,7.2-7.2,7.2h-3V62h-4.8V38H27.3z M27.3,47.6c1.3,0,2.4-1.1,2.4-2.4
			s-1.1-2.4-2.4-2.4h-3v4.8H27.3z"/>
		<path fill="#F6F6F6" d="M53.8,50l8.5,12h-5.9l-5.6-7.8L45.3,62h-5.9L48,50l-8.5-12h5.9l5.6,7.9l5.6-7.9h5.9L53.8,50z"/>
		<path fill="#F6F6F6" d="M72.7,57.2h8.9V62H68V38h4.8V57.2z"/>
		<path fill="#F6F6F6" d="M94.7,51.8c-0.8-0.2-2.3-0.6-3.6-1.5c-1.9-1.3-3-3.1-3.1-5.4c-0.1-1.9,0.5-3.6,1.7-4.9
			c1.8-1.8,4.3-2.4,5.6-2.4c3.5,0,5.4,1.3,7.2,2.4l0.8,0.5l-2.5,4.1l-0.9-0.5c-1.5-1-2.5-1.6-4.6-1.6c-0.3,0-1.5,0.2-2.1,0.9
			c-0.2,0.2-0.4,0.6-0.4,1.4c0,1.2,0.9,1.9,3.1,2.5c0.3,0.1,0.5,0.1,0.7,0.2c2.3,0.8,4.1,1.8,5.3,3.2c1.2,1.4,1.9,3,1.9,4.7
			c0,1.7-0.7,3.4-1.9,4.8c-1.4,1.6-3.4,2.5-5.5,2.5c-1.1,0-2.5-0.1-4.2-0.6C90,61.2,88,60,86.4,58.3l3.5-3.3
			c2.5,2.7,5.4,2.7,6.4,2.7c2,0,2.6-1.8,2.6-2.4c0-1.3-1.5-2.5-4-3.4l-0.1,0L94.7,51.8z"/>
		<path fill="#F6F6F6" d="M123.5,38h4.8v24h-4.8V52h-8.9v10h-4.8V38h4.8v9.2h8.9V38z"/>
		<path fill="#F6F6F6" d="M159.1,50c0,6.8-5.6,12.4-12.4,12.4c-6.8,0-12.4-5.6-12.4-12.4c0-6.8,5.6-12.4,12.4-12.4
			C153.5,37.5,159.1,43.1,159.1,50z M139.2,50c0,4.1,3.4,7.5,7.5,7.5c4.1,0,7.5-3.4,7.5-7.5c0-4.1-3.4-7.5-7.5-7.5
			C142.5,42.5,139.2,45.8,139.2,50z M143.5,50c0,1.8,1.3,3.2,3.2,3.2c1.8,0,3.2-1.3,3.2-3.2c0-1.8-1.3-3.2-3.2-3.2
			C144.8,46.8,143.5,48.1,143.5,50z"/>
		<path fill="#F6F6F6" d="M173.2,38c4,0,7.2,3.3,7.2,7.2c0,4-3.2,7.2-7.2,7.2h-3V62h-4.8V38H173.2z M173.2,47.6
			c1.3,0,2.4-1.1,2.4-2.4s-1.1-2.4-2.4-2.4h-3v4.8H173.2z"/>
	</g>
</g>
</svg>
