<?xml version="1.0" encoding="utf-8"?>
<!-- Generator: Adobe Illustrator 17.1.0, SVG Export Plug-In . SVG Version: 6.00 Build 0)  -->
<!DOCTYPE svg PUBLIC "-//W3C//DTD SVG 1.1//EN" "http://www.w3.org/Graphics/SVG/1.1/DTD/svg11.dtd">
<svg version="1.1" id="Слой_1" xmlns="http://www.w3.org/2000/svg" xmlns:xlink="http://www.w3.org/1999/xlink" x="0px" y="0px"
	 viewBox="0 0 200 200" enable-background="new 0 0 200 200" xml:space="preserve">
<g>
	<g>
		<path fill="#FFFFFF" d="M39.5,68.8c10.3,0,18.7,8.5,18.7,18.8s-8.4,18.7-18.7,18.7h-7.7v24.9H19.3V68.8H39.5z M39.5,93.8
			c3.4,0,6.2-2.8,6.2-6.2s-2.8-6.3-6.2-6.3h-7.7v12.5H39.5z"/>
		<path fill="#FFFFFF" d="M108.4,100l22.2,31.1h-15.3l-14.5-20.4l-14.5,20.4H70.9L93.1,100L70.9,68.8h15.3l14.5,20.5l14.5-20.5h15.3
			L108.4,100z"/>
		<path fill="#FFFFFF" d="M157.5,118.7h23.2v12.4H145V68.8h12.5V118.7z"/>
	</g>
</g>
</svg>
